<svg width="1200" height="1050" fill="none" xmlns="http://www.w3.org/2000/svg">
  <path fill-rule="evenodd" clip-rule="evenodd" d="M307 32.45c-4.13.7-11.1 2.27-15.5 3.48-4.4 1.2-12.24 4.27-17.41 6.8a128 128 0 0 0-17.2 10.47 119.72 119.72 0 0 0-13.47 12.09 139.58 139.58 0 0 0-11.13 14.47 160.08 160.08 0 0 0-9.3 16.53 195 195 0 0 0-6.88 17.24 216.46 216.46 0 0 0-5.5 21.47 289.43 289.43 0 0 0-3.55 23.42c-.58 6.01-1.06 18.65-1.06 28.1 0 9.43.68 24.32 1.51 33.07.84 8.75 2.42 21.53 3.52 28.41 1.1 6.88 2.92 17.23 4.06 23 1.13 5.77 3.84 17.7 6.02 26.5 2.18 8.8 6.49 24.44 9.58 34.77 3.09 10.32 5.43 18.92 5.21 19.12-.22.2-9.88 3.52-21.47 7.37a863.78 863.78 0 0 0-38 13.74 638.65 638.65 0 0 0-34.24 15.07 574.6 574.6 0 0 0-26.5 13.57 487.32 487.32 0 0 0-19.19 11.67A407.38 407.38 0 0 0 77 426.38c-5.22 3.92-14.72 12.3-21.12 18.62s-14.3 15.14-17.57 19.58c-3.27 4.45-8 12.1-10.52 17-2.52 4.9-5.74 12.6-7.15 17.1-1.41 4.51-3.05 12.1-3.65 16.87a71.97 71.97 0 0 0-.04 17.81 122.4 122.4 0 0 0 3.01 16.14c1.1 3.85 4.22 11.5 6.94 17 2.73 5.5 7.7 13.74 11.06 18.3 3.35 4.57 9.8 12.17 14.32 16.88A272.26 272.26 0 0 0 70 618.24c5.22 4.39 10.5 8.44 11.72 9.02 1.62.75 2.63.7 3.75-.24.84-.7 1.53-1.83 1.53-2.52s-4.16-4.65-9.25-8.79a273.44 273.44 0 0 1-18.85-17.37c-5.28-5.41-12.28-13.48-15.56-17.92a130.23 130.23 0 0 1-10.09-16.5 137.82 137.82 0 0 1-6.17-14.8 101.06 101.06 0 0 1-3.14-15c-.6-4.74-.8-11.54-.45-15.12a112.4 112.4 0 0 1 2.2-12.92c.86-3.52 2.84-9.52 4.41-13.33 1.57-3.8 4.52-9.69 6.55-13.08 2.03-3.4 6.49-9.77 9.9-14.17 3.4-4.4 10.42-12.06 15.57-17.02 5.16-4.97 13.2-12 17.88-15.63 4.67-3.63 13-9.53 18.5-13.12s15.85-9.8 23-13.8 19.72-10.38 27.94-14.19c8.22-3.8 21.72-9.62 30-12.93a845.69 845.69 0 0 1 37.03-13.37c12.08-4.04 22.04-7.25 22.13-7.14.1.11 3.85 10.04 8.35 22.07 4.5 12.03 12.03 30.94 16.73 42 4.7 11.07 12.98 29.51 18.4 40.98 5.4 11.46 14.58 29.8 20.38 40.75 5.8 10.95 10.54 20.35 10.54 20.88 0 .52-3.9 8.28-8.67 17.24-4.77 8.95-12.9 25.05-18.09 35.78a1506.16 1506.16 0 0 0-16.96 36.5 1074.83 1074.83 0 0 0-14.8 35.5c-4 10.17-9.18 23.75-11.5 30.17-2.43 6.66-4.72 11.5-5.36 11.3l-20.12-6.53a791.67 791.67 0 0 1-36.75-13.13c-9.77-3.82-18.54-6.8-19.5-6.62-.96.18-1.9 1.35-2.07 2.6-.28 1.95.71 2.75 7 5.63 4.02 1.86 13.4 5.61 20.82 8.36 7.43 2.74 21.49 7.6 31.25 10.78 9.76 3.19 17.75 6.19 17.75 6.67 0 .48-2.28 8.39-5.06 17.57a867.51 867.51 0 0 0-9.44 34.2c-2.4 9.63-5.5 23.35-6.88 30.5a699.37 699.37 0 0 0-4.53 27c-1.1 7.7-2.48 19.4-3.04 26-.57 6.6-1.03 19.68-1.04 29.08 0 9.39.47 21.99 1.05 28 .59 6 2.19 16.54 3.56 23.42a217.64 217.64 0 0 0 5.5 21.5 198.04 198.04 0 0 0 7.3 18.09c2.36 5 6.7 12.64 9.63 17 2.93 4.35 8.96 11.52 13.39 15.94s11.4 10.24 15.46 12.93c4.08 2.7 11.35 6.6 16.17 8.68a132.2 132.2 0 0 0 16.6 5.74 190.8 190.8 0 0 0 15.02 3.04c3.96.59 13.4 1.07 21 1.06 7.6-.01 18.33-.66 23.86-1.45 5.52-.78 14.09-2.31 19.04-3.39a371.4 371.4 0 0 0 19.96-5.14c6.02-1.74 18.38-6.1 27.45-9.69 9.07-3.58 25.27-10.96 36-16.39a651.82 651.82 0 0 0 33-17.98 838.32 838.32 0 0 0 27.62-17.5 884.82 884.82 0 0 0 30.5-21.59c9-6.7 21.86-16.6 28.55-22 6.7-5.4 13.85-10.94 15.9-12.33a13.97 13.97 0 0 1 7.46-2.52c2.89 0 5.2 1.07 10.11 4.67a573.2 573.2 0 0 1 15.86 12.3c5.23 4.21 14.9 11.71 21.5 16.68 6.6 4.96 17.17 12.65 23.5 17.08a747.76 747.76 0 0 0 24 15.98 753.65 753.65 0 0 0 24 14.49 654.1 654.1 0 0 0 25.81 13.75c7.88 3.95 18 8.76 22.5 10.7 4.5 1.94 12.74 5.24 18.3 7.33 5.57 2.1 13.93 4.98 18.6 6.4a371.09 371.09 0 0 0 18.88 5.04c5.72 1.34 15.49 3.15 21.7 4.01 6.2.87 17.37 1.57 24.8 1.57 7.44 0 16.76-.49 20.72-1.08a190.8 190.8 0 0 0 15.02-3.04c4.3-1.08 11.75-3.65 16.54-5.72 4.8-2.07 12.07-5.98 16.17-8.71 4.1-2.72 11.06-8.55 15.46-12.95 4.4-4.4 10.4-11.5 13.32-15.77a149.8 149.8 0 0 0 9.7-17c2.4-5.08 5.71-13.28 7.37-18.23a218.86 218.86 0 0 0 5.5-21.5 277.15 277.15 0 0 0 3.55-24c.58-6.33 1.05-18.56 1.06-27.2 0-8.63-.47-21.45-1.05-28.5-.58-7.04-1.95-19.1-3.03-26.8a611.53 611.53 0 0 0-4.53-27c-1.4-7.15-4.34-20.2-6.51-29a943.04 943.04 0 0 0-9.55-34.79c-3.08-10.33-5.42-18.93-5.21-19.11.2-.18 10.05-3.57 21.88-7.53a903.08 903.08 0 0 0 38-13.74c9.07-3.6 24.6-10.47 34.5-15.26a577.38 577.38 0 0 0 29-15.03c6.05-3.48 16.3-9.93 22.77-14.34a326.25 326.25 0 0 0 21-15.72 247.93 247.93 0 0 0 16.96-15.82 204.62 204.62 0 0 0 13.57-15.97c3.2-4.32 7.89-11.87 10.41-16.78 2.52-4.9 5.71-12.51 7.09-16.91a118 118 0 0 0 3.65-17.59 68.5 68.5 0 0 0 .06-18.31 115.7 115.7 0 0 0-3.65-16.91c-1.41-4.5-4.63-12.2-7.15-17.1a150.65 150.65 0 0 0-10.54-17c-3.28-4.45-10.73-12.85-16.56-18.66-5.84-5.82-13.77-13.07-17.63-16.12a416.17 416.17 0 0 0-18-13.03 389.3 389.3 0 0 0-21.48-13.52c-5.78-3.3-15.9-8.71-22.5-12.02-6.6-3.3-18.87-8.97-27.26-12.6-8.4-3.64-23.25-9.5-33-13.03-9.76-3.53-23.03-8.1-29.49-10.16-6.46-2.06-11.75-4.15-11.75-4.65s2.25-8.33 5-17.4a859.57 859.57 0 0 0 9.08-32.7c2.24-8.91 5.17-21.6 6.52-28.2 1.35-6.6 3.33-17.66 4.4-24.57 1.09-6.92 2.65-19.7 3.48-28.41.84-8.71 1.51-23.76 1.5-33.43 0-9.68-.46-21.87-1-27.09-.55-5.22-1.71-13.78-2.6-19a236 236 0 0 0-4.94-21.16 175.36 175.36 0 0 0-7.88-21.38 171.53 171.53 0 0 0-10.26-18.33 130.68 130.68 0 0 0-13.76-16.66c-4.42-4.42-11.37-10.24-15.44-12.93-4.08-2.7-11.35-6.6-16.17-8.68a132.36 132.36 0 0 0-16.6-5.74 193.14 193.14 0 0 0-15.02-3.04c-3.96-.6-13.05-1.08-20.2-1.08-7.15 0-18.32.68-24.8 1.51-6.5.84-17.32 2.88-24.04 4.55a382.13 382.13 0 0 0-23 6.57 468 468 0 0 0-23.27 8.6 496.87 496.87 0 0 0-29 13.28c-9.08 4.52-21 10.83-26.5 14s-15.4 9.13-22 13.24a716.15 716.15 0 0 0-25 16.54c-7.15 4.98-18.4 13.12-25 18.08-6.6 4.97-18.3 14.05-26 20.18-7.7 6.13-14.98 11.67-16.18 12.3-1.2.63-3.69 1.15-5.52 1.15-1.97 0-4.96-1.1-7.32-2.7-2.19-1.49-10.28-7.72-17.98-13.85-7.7-6.13-20.45-15.92-28.32-21.76a869.9 869.9 0 0 0-28.5-20.1A789.52 789.52 0 0 0 490 85.04a656.48 656.48 0 0 0-33-17.94c-10.73-5.43-23.67-11.52-28.77-13.54-5.79-2.3-10.04-3.44-11.31-3.03-1.36.43-1.93 1.34-1.73 2.74.25 1.67 3.83 3.67 17.5 9.77a577.34 577.34 0 0 1 32.5 15.93 745.87 745.87 0 0 1 33.11 19.39 762.3 762.3 0 0 1 33 22c8.36 5.98 20.15 14.73 26.2 19.44 6.05 4.71 16.05 12.76 22.22 17.9 6.17 5.13 11.7 10.2 12.26 11.27.9 1.68-.02 2.95-6.72 9.3l-25.94 24.56c-10 9.47-25.79 25.19-35.1 34.94-9.3 9.75-21.37 22.68-26.82 28.73a1510.34 1510.34 0 0 0-18.3 20.75c-4.62 5.36-8.67 9.75-9.02 9.75-.34 0-4.7 3.07-9.7 6.82l-9.1 6.83-14.89 1.72c-8.19.95-27.26 3.5-42.39 5.65a1503.4 1503.4 0 0 0-49.5 8c-12.1 2.23-31 6.08-42 8.55-11 2.46-28.68 6.78-39.29 9.58-10.6 2.81-19.55 4.85-19.87 4.52-.33-.32-2.78-7.7-5.46-16.38a835.12 835.12 0 0 1-9.85-35.79c-2.75-11-6.14-26.3-7.55-34-1.4-7.7-3.53-21.2-4.73-30-1.8-13.27-2.18-20.94-2.21-45-.03-23.15.32-31.28 1.75-40.3.99-6.22 2.92-15.65 4.3-20.95 1.38-5.3 4.3-14.22 6.48-19.8a145.36 145.36 0 0 1 9.7-19.43c3.15-5.1 8.8-12.57 12.55-16.61 3.75-4.04 9.6-9.45 13-12.03 3.4-2.57 10.68-6.84 16.18-9.47 5.5-2.64 13.3-5.7 17.34-6.81 4.03-1.11 11.9-2.53 17.5-3.16 5.59-.63 11.2-1.55 12.48-2.05 1.64-.64 2.22-1.56 2-3.15-.29-2.01-.93-2.26-6.32-2.4-3.3-.1-9.38.4-13.5 1.11Zm585.92 7.08c5.18.84 12.72 2.64 16.77 4a139.9 139.9 0 0 1 15.08 6.36c4.25 2.13 10.51 5.97 13.91 8.53 3.4 2.56 9.25 7.95 13 11.99s9.4 11.51 12.55 16.61c3.16 5.1 7.52 13.85 9.7 19.43 2.19 5.58 5.1 14.5 6.48 19.8 1.38 5.3 3.31 14.73 4.3 20.95 1.43 9.02 1.78 17.15 1.75 40.3-.03 24.06-.4 31.73-2.21 45-1.2 8.8-3.33 22.3-4.73 30-1.4 7.7-4.8 23-7.55 34-2.74 11-7.18 27.1-9.85 35.8-2.68 8.68-5.13 16.05-5.46 16.37-.32.32-10.16-1.93-21.87-5.01s-29.49-7.41-39.5-9.62a1442.04 1442.04 0 0 0-40-8.06 1480 1480 0 0 0-49.29-7.95 2277.9 2277.9 0 0 0-41.5-5.56c-10.5-1.24-14.5-2.1-16-3.47-1.1-1-6.42-4.77-11.82-8.38a78.67 78.67 0 0 1-17.45-15.33c-4.19-4.84-12.1-13.74-17.59-19.79a1968.7 1968.7 0 0 0-26.32-28.17c-9-9.45-24.56-24.95-34.59-34.45l-26-24.62c-6.79-6.44-7.62-7.6-6.68-9.35.59-1.1 6.78-6.75 13.76-12.55a947.37 947.37 0 0 1 29.85-23.46 912.56 912.56 0 0 1 32.83-23.41c8.63-5.78 21.7-14.1 29.05-18.47a688 688 0 0 1 27.66-15.43c7.87-4.1 19.97-9.94 26.9-12.95 6.93-3.02 18.18-7.5 25-9.97a331.27 331.27 0 0 1 26.9-8.1c7.98-1.98 18.77-4.23 24-4.98 5.23-.76 16.25-1.42 24.5-1.48 9.18-.06 18.65.5 24.42 1.42ZM604.8 179.35c1.75 1.3 10.5 9.12 19.44 17.39a1321.4 1321.4 0 0 1 36.76 35.9 1501.5 1501.5 0 0 1 33.75 35.5c7.29 8.06 13.25 14.9 13.25 15.21 0 .31-2.81-.7-6.25-2.24a275.55 275.55 0 0 0-14.75-5.9 315.4 315.4 0 0 0-17.5-5.7 283.6 283.6 0 0 0-22-4.97 347.44 347.44 0 0 0-27-3.6c-8.3-.72-20.52-.98-30-.63a330 330 0 0 0-27.5 2.2c-6.33.9-16.23 2.73-22 4.08a285.61 285.61 0 0 0-20 5.57 256.16 256.16 0 0 0-19.25 7.43c-5.36 2.36-9.75 4.05-9.75 3.75 0-.3 5.96-7.14 13.25-15.18a1561.6 1561.6 0 0 1 34.75-36.5 1304.54 1304.54 0 0 1 36.66-35.84c8.34-7.69 16.64-15.07 18.45-16.4 1.8-1.33 4-2.42 4.89-2.42.89 0 3.04 1.06 4.8 2.35ZM433.02 328.7a198.94 198.94 0 0 0-17.2 21.68 237.15 237.15 0 0 0-13.8 24.05c-3.18 6.64-6.84 15-8.12 18.57-1.5 4.17-7.05 13.5-15.49 26a1624.22 1624.22 0 0 0-24.12 37 1682.16 1682.16 0 0 0-20.97 34.5c-5.5 9.35-11.25 19.21-12.8 21.92-2.59 4.54-2.9 4.78-4.14 3.08-.74-1.01-7.39-13.8-14.77-28.42a1452.45 1452.45 0 0 1-21.12-43.58 1358.6 1358.6 0 0 1-14.55-33.53c-3.76-9.09-9.79-24.52-13.4-34.3-3.6-9.77-6.54-18.16-6.54-18.65 0-.48 2.36-1.58 5.25-2.44a1153.17 1153.17 0 0 1 71.25-17.17c12.1-2.47 32.57-6.23 45.5-8.36 12.93-2.14 32.27-5.03 43-6.43a1961.8 1961.8 0 0 0 22-2.94c1.38-.23 4-.47 5.85-.54l3.35-.14-9.19 9.7Zm355.48-6.14a1587 1587 0 0 1 43.5 6.48 1438.6 1438.6 0 0 1 46 8.5c12.38 2.54 32.17 7.06 44 10.04a1111.3 1111.3 0 0 1 26.75 7c2.89.86 5.23 2.1 5.2 2.75-.03.64-2.68 8.15-5.9 16.67-5.84 15.5-5.84 15.5-3.8 17.28 1.13.98 2.55 1.63 3.15 1.44.6-.2 3.9-7.75 7.3-16.79 3.41-9.04 6.34-16.75 6.5-17.14.17-.4 10.2 2.6 22.3 6.64a847.93 847.93 0 0 1 37 13.36c8.25 3.3 21.32 8.9 29.05 12.43a483.34 483.34 0 0 1 28 14.2 491.4 491.4 0 0 1 24.95 15 327 327 0 0 1 21.09 15.34 254.14 254.14 0 0 1 20.03 18.54c5.47 5.73 12.62 14.42 15.88 19.31a132.64 132.64 0 0 1 9.58 17.39 130.47 130.47 0 0 1 5.45 15.5c1.21 4.75 1.78 10.7 1.78 18.5-.01 7.62-.59 13.7-1.72 18-.94 3.58-2.6 8.98-3.7 12-1.09 3.02-4.05 9.1-6.58 13.5-2.52 4.4-7.39 11.6-10.81 16-3.42 4.4-10.72 12.3-16.21 17.58a270.12 270.12 0 0 1-20.55 17.5 352.82 352.82 0 0 1-20.64 14.18 518.76 518.76 0 0 1-21.33 12.41 500.4 500.4 0 0 1-25.27 12.6 730.05 730.05 0 0 1-28.5 12.22 786.94 786.94 0 0 1-29.03 10.79 913.6 913.6 0 0 1-22.67 7.5l-8.14 2.5-4.69-13.14c-2.58-7.23-7.85-21.01-11.71-30.64a1348.6 1348.6 0 0 0-14.52-34.5 1329.45 1329.45 0 0 0-18.8-40 1531.57 1531.57 0 0 0-18.11-35.79l-6.83-12.8 2.81-5.2c1.55-2.87 7.29-13.8 12.75-24.3 5.47-10.5 9.94-19.82 9.94-20.72 0-.89-.9-2.1-2.02-2.7-1.11-.6-2.45-.82-2.96-.5-.52.32-5.73 9.99-11.58 21.49-5.85 11.5-11.2 21.68-11.9 22.63-1.13 1.55-1.55 1.21-4.04-3.2-1.53-2.7-9.75-16.58-18.25-30.85a1525.03 1525.03 0 0 0-28.97-46.49c-12.5-19.02-13.8-21.44-17.43-32.56-2.15-6.6-7.24-18.76-11.3-27.01-4.06-8.25-9.86-18.55-12.9-22.88-3.04-4.34-8.8-11.7-12.8-16.36s-9.54-10.5-12.31-12.96l-5.04-4.48 4 .57c2.2.31 13 1.74 24 3.17Zm-404.98 107a380.7 380.7 0 0 0-3.18 19.44c-1.32 9.49-1.73 19.37-1.73 41 0 20.94.47 32.35 1.76 43 .96 7.98 2.89 19.9 4.27 26.5 1.39 6.6 4.11 16.95 6.05 23a215.22 215.22 0 0 0 8.75 22 235.72 235.72 0 0 0 9.53 18c2.37 3.85 6.36 9.7 8.87 13 2.5 3.3 7.95 9.54 12.1 13.87A156.62 156.62 0 0 0 445 662.92a231.21 231.21 0 0 0 14.06 9.78c3.6 2.25 11.03 6.33 16.5 9.06A334.67 334.67 0 0 0 500 692.28a360.19 360.19 0 0 0 27.5 9.11 381.32 381.32 0 0 0 26.64 6.06c7.5 1.37 20.9 3.02 29.75 3.66 12.27.9 19.86.9 31.86.03a342.1 342.1 0 0 0 26.75-3.06 404.98 404.98 0 0 0 18-3.53c3.85-.89 12.38-3.21 18.96-5.15a339.23 339.23 0 0 0 23.5-8.1c6.34-2.5 16.75-7.16 23.12-10.35 6.37-3.19 16.5-9.08 22.5-13.09a145.7 145.7 0 0 0 21.94-18.32c6.06-6.07 14.04-15.31 17.72-20.54a222.14 222.14 0 0 0 12.75-21.18c3.34-6.43 7.8-16.33 9.93-22a248 248 0 0 0 6.96-22.82 326.4 326.4 0 0 0 5.08-26.5c1.1-7.7 2.49-22.33 3.1-32.5.6-10.18.8-24.8.44-32.5-.37-7.7-1.3-18.95-2.07-25-.78-6.05-1.4-11.45-1.4-12 0-.55 3.52 4.4 7.8 11 4.3 6.6 12.1 18.98 17.35 27.5 5.25 8.52 14.1 23.44 19.68 33.15 5.58 9.7 10.14 18.19 10.14 18.85 0 .66-4.56 9.15-10.14 18.85-5.58 9.7-14.42 24.63-19.66 33.15a1686.88 1686.88 0 0 1-22.7 35.57 1716 1716 0 0 1-24.02 35.5 1745.47 1745.47 0 0 1-51.17 68.4c-4.84 6.04-10.29 11.97-12.1 13.18-1.8 1.21-5.4 2.65-8 3.2-2.59.56-10.34 1.5-17.21 2.1-6.88.59-19.92 1.54-29 2.12-9.08.58-38.55 1.3-65.5 1.62-30.73.36-59.44.14-77-.6-15.4-.63-34.3-1.6-42-2.13-7.7-.53-17.82-1.44-22.5-2.03-4.68-.58-10.3-1.86-12.5-2.84-2.2-.97-5.58-3.53-7.5-5.68-1.93-2.15-9.78-11.98-17.46-21.85-7.67-9.87-20.2-26.52-27.83-37A1638.06 1638.06 0 0 1 379.54 620a1774.24 1774.24 0 0 1-27.77-43 1698.7 1698.7 0 0 1-19.63-33.15C326.56 534.15 322 525.66 322 525c0-.66 4.56-9.15 10.14-18.85 5.57-9.7 14.85-25.3 20.62-34.65 5.76-9.35 15.25-24.28 21.09-33.19 5.84-8.9 10.73-16.07 10.87-15.93.13.14-.4 3.38-1.2 7.19ZM328.05 550.5c5.07 8.8 13.51 22.98 18.75 31.5 5.23 8.52 15.07 23.97 21.87 34.32 6.79 10.35 17.13 25.65 22.97 34 5.84 8.35 19.08 26.43 29.43 40.18a1820.98 1820.98 0 0 0 25.28 33c6.2 7.66 6.37 8.01 4 8.32-1.36.18-8.4-.42-15.66-1.32-7.25-.9-21.29-2.76-31.19-4.12-9.9-1.36-27.38-4.04-38.85-5.96a1429.16 1429.16 0 0 1-43-8.03c-12.18-2.5-31.82-7-43.65-9.97a1109.98 1109.98 0 0 1-26.75-7c-2.89-.86-5.25-1.96-5.25-2.44 0-.49 2.95-8.88 6.55-18.65 3.6-9.78 9.63-25.21 13.4-34.3 3.76-9.1 10.26-24.06 14.43-33.27 4.18-9.2 12.15-25.86 17.72-37 5.56-11.14 12.15-24 14.63-28.59 2.48-4.58 4.87-7.95 5.3-7.5.44.46 4.95 8.03 10.02 16.83ZM900.38 567c8.4 16.77 19.12 39.27 23.83 50a1284.37 1284.37 0 0 1 15.11 36c3.6 9.08 8.37 21.64 10.61 27.92 2.24 6.28 4.07 11.76 4.07 12.17 0 .42-2.36 1.47-5.25 2.33-2.89.87-14.92 4.02-26.75 7a1227.63 1227.63 0 0 1-43.65 9.97c-12.18 2.5-31.53 6.12-43 8.03-11.47 1.92-28.95 4.6-38.85 5.96-9.9 1.36-23.94 3.22-31.2 4.12-7.25.9-14.3 1.5-15.65 1.32-2.37-.3-2.2-.66 4-8.32 3.57-4.4 15.6-20.15 26.74-35a1930.05 1930.05 0 0 0 28.27-38.5 1870.2 1870.2 0 0 0 17.02-25 1627.8 1627.8 0 0 0 20.01-31 1563.04 1563.04 0 0 0 32.32-53.92c4-6.92 4.37-7.29 5.69-5.5.77 1.06 8.28 15.64 16.67 32.42Zm-636.9 138.94c10.15 2.72 27.58 6.97 38.74 9.46 11.15 2.48 30.1 6.33 42.1 8.55 12 2.21 34.04 5.8 49 7.95 14.95 2.15 36.06 4.94 46.91 6.2l19.73 2.27 16.36 19.07c9 10.48 22.4 25.58 29.76 33.56 7.37 7.98 19.48 20.75 26.91 28.38 7.43 7.63 23.63 23.37 36.01 34.96 12.38 11.6 22.83 21.6 23.24 22.25.4.65-.14 2.28-1.2 3.63s-7.71 7.21-14.78 13.03c-7.08 5.82-20.5 16.3-29.81 23.28a854.51 854.51 0 0 1-33.95 23.92 845.4 845.4 0 0 1-28.31 17.92 677 677 0 0 1-25.5 14.1A504 504 0 0 1 432 987.31a548.01 548.01 0 0 1-24 9.66 332.82 332.82 0 0 1-26.5 8.06 301.42 301.42 0 0 1-26.28 5.4c-6.21.86-17.46 1.57-25 1.57-7.55-.01-17.55-.63-22.22-1.39a154.56 154.56 0 0 1-16-3.61 119.72 119.72 0 0 1-16-6.5 117.6 117.6 0 0 1-14.73-8.96c-3.43-2.57-9.28-8-13-12.05a131.96 131.96 0 0 1-12.1-15.86 149.72 149.72 0 0 1-9.7-19.31c-2.4-5.95-5.5-15.15-6.86-20.44-1.37-5.3-3.22-14.3-4.12-20-.93-5.92-1.88-19.85-2.2-32.4-.34-13.43-.1-27.28.61-35.5.65-7.41 2.07-19.78 3.17-27.48a621.4 621.4 0 0 1 5.03-29 715.6 715.6 0 0 1 5.92-26.5 762.14 762.14 0 0 1 5.48-20.5c1.43-4.95 4.16-14.06 6.08-20.25 1.92-6.19 3.93-11.25 4.46-11.25.53 0 9.28 2.22 19.43 4.94Zm696.95 6.31c1.92 6.19 5.03 16.65 6.9 23.25 1.88 6.6 5.02 18.98 7 27.5a667.7 667.7 0 0 1 6.05 29.5c1.35 7.7 3.27 20.3 4.27 28 1.41 10.81 1.82 20.6 1.8 43-.01 22.54-.4 31.3-1.72 39.36-.94 5.7-2.85 14.88-4.25 20.4a206.18 206.18 0 0 1-6.52 20.23 145.8 145.8 0 0 1-9.73 19.49 128.58 128.58 0 0 1-12.43 16.48c-3.68 3.97-9.08 9.06-12 11.3-2.91 2.25-9.13 6.13-13.8 8.6a125.75 125.75 0 0 1-16.48 7.11 138.38 138.38 0 0 1-17 4.06c-4.96.8-15.2 1.46-22.74 1.47-7.54 0-18.79-.71-25-1.57-6.2-.87-18.1-3.32-26.46-5.45-8.34-2.12-21.4-6.2-29-9.04-7.6-2.85-20-8-27.55-11.44a541.57 541.57 0 0 1-28-14.02A707.5 707.5 0 0 1 705 953.74a798.2 798.2 0 0 1-25.5-16.55 1085.77 1085.77 0 0 1-28-20.26c-9.35-7-22.85-17.6-30-23.57-10.3-8.6-13-11.38-13-13.36 0-1.93 3.3-5.55 14.5-15.94 7.98-7.4 24.64-23.6 37.04-36a1431.8 1431.8 0 0 0 38.26-39.88c8.65-9.53 21.6-24.22 28.76-32.64l13.04-15.32 6.7-.68a1910.46 1910.46 0 0 0 76.64-10.12 1334.3 1334.3 0 0 0 45.43-8.03c12.3-2.45 30.08-6.23 39.5-8.42a877.96 877.96 0 0 0 31.13-7.88c7.7-2.16 14.77-3.96 15.72-4 1.33-.07 2.5 2.42 5.2 11.16ZM509.58 743.7c20.82 1.27 43.56 1.72 89.42 1.75 48.87.04 67.9-.34 92.7-1.83 17.15-1.03 31.89-1.6 32.75-1.28.85.33 1.55 1.27 1.55 2.09 0 .82-2.74 4.77-6.09 8.78a1357 1357 0 0 1-22.24 25.29c-8.89 9.9-25.61 27.62-37.17 39.37a1297.82 1297.82 0 0 1-36.87 36c-8.73 8.04-17.37 15.7-19.2 17-2.25 1.6-4.09 2.18-5.7 1.78-1.3-.33-7.5-5.2-13.8-10.85-6.28-5.64-20.6-19.26-31.8-30.27A1376.3 1376.3 0 0 1 517 794.5c-8.67-9.35-21.28-23.3-28.02-31-6.74-7.7-12.92-15-13.73-16.24-.8-1.24-1.21-2.92-.9-3.75.36-.93 1.88-1.51 3.94-1.51 1.85 0 15.93.77 31.28 1.7Z" fill="#000"/>
  <path d="M354.28 13.51c2.2-1.54 6.1-3.4 8.66-4.11a30.7 30.7 0 0 1 9.97-.8c2.91.27 7.48 1.51 10.14 2.74a36.78 36.78 0 0 1 8.94 6.44 30.7 30.7 0 0 1 6.04 9.35 34.62 34.62 0 0 1 1.93 11.64c0 5.11-.58 7.7-2.75 12.28-1.5 3.2-4.34 7.21-6.3 8.93a45.32 45.32 0 0 1-7.64 5.21c-2.6 1.34-6.51 2.25-10.84 2.52-5.32.34-7.93-.02-12.28-1.66a31.47 31.47 0 0 1-9.7-6.15 37.33 37.33 0 0 1-6.4-8.64 35.4 35.4 0 0 1-2.73-10.2c-.34-3.7.02-7.44 1.06-11.03.87-2.98 3-7.28 4.74-9.56a39.33 39.33 0 0 1 7.16-6.96Z" fill="#000"/>
  <path d="M910.05 407.9a52.46 52.46 0 0 1 8.41-3.86c2.56-.84 6.35-1.17 10-.86 3.4.28 7.98 1.53 10.9 2.96a34.2 34.2 0 0 1 8.68 6.47c1.99 2.2 4.56 6.04 5.7 8.53 1.6 3.46 2.07 6.36 2.04 12.35-.04 6.52-.48 8.67-2.67 12.9a39.5 39.5 0 0 1-6.18 8.53 38.14 38.14 0 0 1-8.08 5.68c-3.65 1.8-6.14 2.23-12.84 2.21-6.74-.02-9.12-.44-12.52-2.24a46.86 46.86 0 0 1-7.86-5.53 33.1 33.1 0 0 1-6.05-8.02c-1.8-3.57-2.49-6.68-2.75-12.69-.3-6.41.02-8.82 1.63-12.45a47.62 47.62 0 0 1 4.65-7.99 28.5 28.5 0 0 1 6.94-6Z" fill="#000"/>
  <path d="M107.44 619.54a42.6 42.6 0 0 1 7.44-2.84c2.03-.5 6.07-.7 8.99-.45a37.3 37.3 0 0 1 9.78 2.45 34.18 34.18 0 0 1 8.22 5.6c2.07 1.99 4.89 5.82 6.27 8.5 1.76 3.42 2.64 6.95 2.94 11.74.34 5.4-.01 8.03-1.7 12.48a31.58 31.58 0 0 1-6.72 10.36 27.53 27.53 0 0 1-10.23 6.84 36.2 36.2 0 0 1-10.93 2.1c-2.92 0-7.67-.89-10.55-1.97a36.3 36.3 0 0 1-9.12-5.27 35.9 35.9 0 0 1-6.68-8.48c-2.12-3.91-2.92-6.9-3.26-12.2-.33-5.01.02-8.46 1.2-12.02.97-2.92 3.5-7.03 6.12-9.95 2.46-2.73 6.16-5.83 8.23-6.89Z" fill="#000"/>
</svg>
